/* XPM */
static char * active_xpm[] = {
"192 38 5 1",
" 	c None",
".	c #444444",
"+	c #555555",
"@	c #EEEEEE",
"#	c #888888",
" .............................................................................................................................................................................................. ",
".++++++++++++++++++++++++++++++++++++++++++++++++++++++++++++++++++++++++++++++++++++++++++++++++++++++++++++++++++++++++++++++++++++++++++++++++++++++++++++++++++++++++++++++++++++++++++++++.",
".++++++++++++++++++++++++++++++++++++++++++++++++++++++++++++++++++++++++++++++++++++++++++++++++++++++++++++++++++++++++++++++++++++++++++++++++++++++++++++++++++++++++++++++++++++++++++++++.",
".++++++++++++++++++++++++++++++++++++++++++++++++++++++++++++++++++++++++++++++++++++++++++++++++++++++++++++++++++++++++++++++++++++++++++++++++++++++++++++++++++++++++++++++++++++++++++++++.",
".++++++++++++++++++++++++++++++++++++++++++++++++++++++++++++++++++++++++++++++++++++++++++++++++++++++++++++++++++++++++++++++++++++++++++++++++++++++++++++++++++++++++++++++++++++++++++++++.",
".++++++++++++++++++++++++++++++++++++++++++++++++++++++++++++++++++++++++++++++++++++++++++++++++++++++++++++++++++++++++++++++++++++++++++++++++++++++++++++++++++++++++++++++++++++++++++++++.",
".++++++++++++++++++++++++++++++++++++++++++++++++++++++++++++++++++++++++++++++++++++++++++++++++++++++++++++++++++++++++++++++++++++++++++++++++++++++++++++++++++++++++++++++++++++++++++++++.",
".++++++++++++++++++++++++++++++++++++++++++++++++++++++++++++++++++++++++++++++++++++++++++++++@@@@++@@@@++++++++++++++++++++++++++++++@@@@@@@@@@++++++++++++++@@@@@@@++++++++++@++++++@+++++++.",
".+++++++++++++++@@@@@@@@+++++++++++++++++++++++++++++++++++++++++++++++++++++++++++++++++++++++@@@@++@@@@++++++++++++++++++++++++++++++@@@@@@@@@@++++++++++++++@@@@@@@+++++++++@@@++++@@@++++++.",
".+++++++++++++++@@@@@@@@+++++++++++++++@@++++++++++++++++++++++++++++++++++++@@@@@@++++++++++++@@@@++@@@@++++++++++++++++++++++++++++++@++++++++@++++++++++++++++++++@++++++++++@@@++@@@+++++++.",
".+++++++++++++++++++++++++++++++++++++@@@@+++++++++++++@++++++++@++++++++++++@@@@@@++++++++++++@@@@++@@@@++++++++++++++++++++++++++++++@++++++++@+++++++++@@@@@@@++++@+++++++++++@@@@@@++++++++.",
".+++++++++++++++@@@@@@@@+++++++++++++@@@@@@+++++++++++@@@++++++@@@+++++++++++@@@@@@++++++++++++++++++++++++++++++++++++++++++++++++++++@++++++++@+++++++++@@@@@@@++++@++++++++++++@@@@+++++++++.",
".+++++++++++++++@@@@@@@@++++++++++++@@@++@@@+++++++++++@@@++++@@@++++++++++++@@@@@@++++++++++++++++++++++++++++++++++++++++++++++++++++@++++++++@+++++++++@+++++@++++@++++++++++++@@@@+++++++++.",
".++++++++++++++++++++++++++++++++++@@@++++@@@+++++++++++@@@++@@@+++++++++++++@@@@@@++++++++++++@@@@++@@@@++++++++++++++++++++++++++++++@++++++++@+++++++++@+++++@+@@@@+++++++++++@@@@@@++++++++.",
".+++++++++++++++@@@@@@@@++++++++++@@@++++++@@@+++++++++++@@@@@@++++++++++++++@@@@@@++++++++++++@@@@++@@@@++++++++++++++++++++++++++++++@++++++++@+++++++++@+++++@+++++++++++++++@@@++@@@+++++++.",
".+++++++++++++++@@@@@@@@+++++++++++@++++++++@+++++++++++++@@@@+++++++++++++++++++++++++++++++++@@@@++@@@@++++++++++@@@@@@@@@@++++++++++@++++++++@+++++++++@+++++@++++++++++++++@@@++++@@@++++++.",
".++++++++++++++++++++++++++++++++++++++++++++++++++++++++++@@++++++++++++++++++++++++++++++++++@@@@++@@@@++++++++++@@@@@@@@@@++++++++++@@@@@@@@@@+++++++++@@@@@@@+++++++++++++++@++++++@+++++++.",
".++++++++++++++++++++++++++++++++++++++++++++++++++++++++++++++++++++++++++++++++++++++++++++++++++++++++++++++++++++++++++++++++++++++++++++++++++++++++++++++++++++++++++++++++++++++++++++++.",
".++++++++++++++++++++++++++++++++++++++++++++++++++++++++++++++++++++++++++++++++++++++++++++++++++++++++++++++++++++++++++++++++++++++++++++++++++++++++++++++++++++++++++++++++++++++++++++++.",
".++++++++++++++++++++++++++++++++++++++++++++++++++++++++++++++++++++++++++++++++++++++++++++++++++++++++++++++++++++++++++++++++++++++++++++++++++++++++++++++++++++++++++++++++++++++++++++++.",
".++++++++++++++++++++++++++++++++++++++++++++++++++++++++++++++++++++++++++++++++++++++++++++++++++++++++++++++++++++++++++++++++++++++++++++++++++++++++++++++++++++++++++++++++++++++++++++++.",
".++++++++++++++++++++++++++++++++++++++++++++++++++++++++++++++++++++++++++++++++++++++++++++++++++++++++++++++++++++++++++++++++++++++++++++++++++++++++++++++++++++++++++++++++++++++++++++++.",
".++++++++++++++++++++++++++++++++++++++++++++++++++++++++++++++++++++++++++++++++++++++++++++++++++++++++++++++++++++++++++++++++++++++++++++++++++++++++++++++++++++++++++++++++++++++++++++++.",
".++++++++++++++++++++++++++++++++++++++++++++++++++++++++++++++++++++++++++++++++++++++++++++++++++++++++++++++++++++++++++++++++++++++++++++++++++++++++++++++++++++++++++++++++++++++++++++++.",
".+############################################################################################################################################################################################+.",
".+############################################################################################################################################################################################+.",
".+############################################################################################################################################################################################+.",
".+############################################################################################################################################################################################+.",
".+############################################################################################################################################################################################+.",
".+############################################################################################################################################################################################+.",
".+############################################################################################################################################################################################+.",
".+############################################################################################################################################################################################+.",
".+############################################################################################################################################################################################+.",
".+############################################################################################################################################################################################+.",
".+############################################################################################################################################################################################+.",
".+############################################################################################################################################################################################+.",
".++++++++++++++++++++++++++++++++++++++++++++++++++++++++++++++++++++++++++++++++++++++++++++++++++++++++++++++++++++++++++++++++++++++++++++++++++++++++++++++++++++++++++++++++++++++++++++++.",
" .............................................................................................................................................................................................. "};
