/* XPM */
static char * prelight_xpm[] = {
"256 51 5 1",
" 	c None",
".	c #444444",
"+	c #555555",
"@	c #EEEEEE",
"#	c #888888",
" .............................................................................................................................................................................................................................................................. ",
".++++++++++++++++++++++++++++++++++++++++++++++++++++++++++++++++++++++++++++++++++++++++++++++++++++++++++++++++++++++++++++++++++++++++++++++++++++++++++++++++++++++++++++++++++++++++++++++++++++++++++++++++++++++++++++++++++++++++++++++++++++++++++++++.",
".++++++++++++++++++++++++++++++++++++++++++++++++++++++++++++++++++++++++++++++++++++++++++++++++++++++++++++++++++++++++++++++++++++++++++++++++++++++++++++++++++++++++++++++++++++++++++++++++++++++++++++++++++++++++++++++++++++++++++++++++++++++++++++++.",
".++++++++++++++++++++++++++++++++++++++++++++++++++++++++++++++++++++++++++++++++++++++++++++++++++++++++++++++++++++++++++++++++++++++++++++++++++++++++++++++++++++++++++++++++++++++++++++++++++++++++++++++++++++++++++++++++++++++++++++++++++++++++++++++.",
".++++++++++++++++++++++++++++++++++++++++++++++++++++++++++++++++++++++++++++++++++++++++++++++++++++++++++++++++++++++++++++++++++++++++++++++++++++++++++++++++++++++++++++++++++++++++++++++++++++++++++++++++++++++++++++++++++++++++++++++++++++++++++++++.",
".+++++++++++++++++++++@@@@@@@@@@@@@@@@@@@@++++++@@@@@@@@@@@@@@@@@@@@++++++@@@@@@@@@@@@@@@@@@@@++++++@@@@@@@@@@@@@@@@@@@@++++++@@@@@@@@@@@@@@@@@@@@++++++@@@@@@@@@@@@@@@@@@@@++++++@@@@@@@@@@@@@@@@@@@@++++++@@@@@@@@@@@@@@@@@@@@++++++@@@@@@@@@@@@@@@@@@@@+++++.",
".++++++++++++++++++++@@@@@@@@@@@@@@@@@@@@@@++++@@@@@@@@@@@@@@@@@@@@@@++++@@@@@@@@@@@@@@@@@@@@@@++++@@@@@@@@@@@@@@@@@@@@@@++++@@@@@@@@@@@@@@@@@@@@@@++++@@@@@@@@@@@@@@@@@@@@@@++++@@@@@@@@@@@@@@@@@@@@@@++++@@@@@@@@@@@@@@@@@@@@@@++++@@@@@@@@@@@@@@@@@@@@@@++++.",
".++++++++++++++++++++@@@@@@@@@@@@@@@@@@@@@@++++@@@@@@@@@@@@@@@@@@@@@@++++@@@@@@@@@@@@@@@@@@@@@@++++@@@@@@@@@@@@@@@@@@@@@@++++@@@@@@@@@@@@@@@@@@@@@@++++@@@@@@@@@@@@@@@@@@@@@@++++@@@@@@@@@@@@@@@@@@@@@@++++@@@@@@@@@@@@@@@@@@@@@@++++@@@@@@@@@@@@@@@@@@@@@@++++.",
".++++++++++++++++++++@@@@@@@@@@@@@@@@@@@@@@++++@@@@@@@@@@@@@@@@@@@@@@++++@@@@@@@@@@@@@@@@@@@@@@++++@@@@@@@@@@@@@@@@@@@@@@++++@@@@@@@@@@@@@@@@@@@@@@++++@@@@@@@@@@@@@@@@@@@@@@++++@@@@@@@@@@@@@@@@@@@@@@++++@@@@@@@@@@@@@@@@@@@@@@++++@@@@@@@@@@@@@@@@@@@@@@++++.",
".++++++++++++++++++++@@@@@@@@@@@@@@@@@@@@@@++++@@@@@@@@@@@@@@@@@@@@@@++++@@@@@@@@@@@@@@@@@@@@@@++++@@@@@@@@@@@@@@@@@@@@@@++++@@@@@@@@@@@@@@@@@@@@@@++++@@@@@@@@@@@@@@@@@@@@@@++++@@@@@@@@@@@@@@@@@@@@@@++++@@@@@@@@@++++++++++@@@++++@@@@@@@@@@@@@@@@@@@@@@++++.",
".++++++++++++++++++++@@@@@++++++++++++@@@@@++++@@@@@@@@@@@@@@@@@@@@@@++++@@@@@@@@@@@@@@@@@@@@@@++++@@@@@@@@@@@@@@@@@@@@@@++++@@@@@+++++@@+++++@@@@@++++@@@@@@@@@@@@@@@@@@@@@@++++@@@@@++++++++++++@@@@@++++@@@@@@@@@++++++++++@@@++++@@@@@@+@@@@@@@@+@@@@@@++++.",
".++++++++++++++++++++@@@@@++++++++++++@@@@@++++@@@@@@@@@@@@@@@@@@@@@@++++@@@@@@@@@@@@@@@@@@@@@@++++@@@@@@@@@@@@@@@@@@@@@@++++@@@@@+++++@@+++++@@@@@++++@@@@@@@@@@@@@@@@@@@@@@++++@@@@@++++++++++++@@@@@++++@@@@@@@@@++++++++++@@@++++@@@@@+++@@@@@@+++@@@@@++++.",
".++++++++++++++++++++@@@@@@@@@@@@@@@@@@@@@@++++@@@@@@@@@@@@@@@@@@@@@@++++@@@@@@@@@@@@@@@@@@@@@@++++@@@@@@@++++++++@@@@@@@++++@@@@@+++++@@+++++@@@@@++++@@@@@@@@@@@@@@@@@@@@@@++++@@@@@++++++++++++@@@@@++++@@@@@@@@@@@@@@@@@@+@@@++++@@@@@@+++@@@@+++@@@@@@++++.",
".++++++++++++++++++++@@@@@@@@@@@@@@@@@@@@@@++++@@@@@@@@@@++@@@@@@@@@@++++@@@@@@@@@@@@@@@@@@@@@@++++@@@@@@@++++++++@@@@@@@++++@@@@@+++++@@+++++@@@@@++++@@@@@@@@@@@@@@@@@@@@@@++++@@@@@+@@@@@@@@@@+@@@@@++++@@@++++++++++@@@@@+@@@++++@@@@@@@+++@@+++@@@@@@@++++.",
".++++++++++++++++++++@@@@@@@@@@@@@@@@@@@@@@++++@@@@@@@@@++++@@@@@@@@@++++@@@@@+@@@@@@@@@@+@@@@@++++@@@@@@@++++++++@@@@@@@++++@@@@@+++++@@+++++@@@@@++++@@@@@@@@@@@@@@@@@@@@@@++++@@@@@+@@@@@@@@@@+@@@@@++++@@@++++++++++@@@@@+@@@++++@@@@@@@@++++++@@@@@@@@++++.",
".++++++++++++++++++++@@@@@++++++++++++@@@@@++++@@@@@@@@++++++@@@@@@@@++++@@@@+++@@@@@@@@+++@@@@++++@@@@@@@++++++++@@@@@@@++++@@@@@@@@@@@@@@@@@@@@@@++++@@@@@@@@@@@@@@@@@@@@@@++++@@@@@+@@@@@@@@@@+@@@@@++++@@@++++++++++@@@@@+@@@++++@@@@@@@@@++++@@@@@@@@@++++.",
".++++++++++++++++++++@@@@@++++++++++++@@@@@++++@@@@@@@+++@@+++@@@@@@@++++@@@@@+++@@@@@@+++@@@@@++++@@@@@@@++++++++@@@@@@@++++@@@@@@@@@@@@@@@@@@@@@@++++@@@@@@@@@@@@@@@@@@@@@@++++@@@@@+@@@@@@@@@@+@@@@@++++@@@+@@@@@@@@+@@@@@+@@@++++@@@@@@@@@++++@@@@@@@@@++++.",
".++++++++++++++++++++@@@@@@@@@@@@@@@@@@@@@@++++@@@@@@+++@@@@+++@@@@@@++++@@@@@@+++@@@@+++@@@@@@++++@@@@@@@++++++++@@@@@@@++++@@@@@+++++@@+++++@@@@@++++@@@@@@@@@@@@@@@@@@@@@@++++@@@@@+@@@@@@@@@@+@@@@@++++@@@+@@@@@@@@+@@@@@+@@@++++@@@@@@@@++++++@@@@@@@@++++.",
".++++++++++++++++++++@@@@@@@@@@@@@@@@@@@@@@++++@@@@@+++@@@@@@+++@@@@@++++@@@@@@@+++@@+++@@@@@@@++++@@@@@@@++++++++@@@@@@@++++@@@@@+++++@@+++++@@@@@++++@@@@@@@@@@@@@@@@@@@@@@++++@@@@@+@@@@@@@@@@+@@@@@++++@@@+@@@@@@@@+@+++++@@@++++@@@@@@@+++@@+++@@@@@@@++++.",
".++++++++++++++++++++@@@@@@@@@@@@@@@@@@@@@@++++@@@@+++@@@@@@@@+++@@@@++++@@@@@@@@++++++@@@@@@@@++++@@@@@@@++++++++@@@@@@@++++@@@@@+++++@@+++++@@@@@++++@@@@@++++++++++++@@@@@++++@@@@@+@@@@@@@@@@+@@@@@++++@@@+@@@@@@@@+@@@@@@@@@++++@@@@@@+++@@@@+++@@@@@@++++.",
".++++++++++++++++++++@@@@@++++++++++++@@@@@++++@@@@@+@@@@@@@@@@+@@@@@++++@@@@@@@@@++++@@@@@@@@@++++@@@@@@@@@@@@@@@@@@@@@@++++@@@@@+++++@@+++++@@@@@++++@@@@@++++++++++++@@@@@++++@@@@@+@@@@@@@@@@+@@@@@++++@@@+@@@@@@@@+@@@@@@@@@++++@@@@@+++@@@@@@+++@@@@@++++.",
".++++++++++++++++++++@@@@@++++++++++++@@@@@++++@@@@@@@@@@@@@@@@@@@@@@++++@@@@@@@@@@++@@@@@@@@@@++++@@@@@@@@@@@@@@@@@@@@@@++++@@@@@+++++@@+++++@@@@@++++@@@@@++++++++++++@@@@@++++@@@@@++++++++++++@@@@@++++@@@+@@@@@@@@+@@@@@@@@@++++@@@@@@+@@@@@@@@+@@@@@@++++.",
".++++++++++++++++++++@@@@@@@@@@@@@@@@@@@@@@++++@@@@@@@@@@@@@@@@@@@@@@++++@@@@@@@@@@@@@@@@@@@@@@++++@@@@@@@@@@@@@@@@@@@@@@++++@@@@@@@@@@@@@@@@@@@@@@++++@@@@@@@@@@@@@@@@@@@@@@++++@@@@@@@@@@@@@@@@@@@@@@++++@@@++++++++++@@@@@@@@@++++@@@@@@@@@@@@@@@@@@@@@@++++.",
".++++++++++++++++++++@@@@@@@@@@@@@@@@@@@@@@++++@@@@@@@@@@@@@@@@@@@@@@++++@@@@@@@@@@@@@@@@@@@@@@++++@@@@@@@@@@@@@@@@@@@@@@++++@@@@@@@@@@@@@@@@@@@@@@++++@@@@@@@@@@@@@@@@@@@@@@++++@@@@@@@@@@@@@@@@@@@@@@++++@@@@@@@@@@@@@@@@@@@@@@++++@@@@@@@@@@@@@@@@@@@@@@++++.",
".++++++++++++++++++++@@@@@@@@@@@@@@@@@@@@@@++++@@@@@@@@@@@@@@@@@@@@@@++++@@@@@@@@@@@@@@@@@@@@@@++++@@@@@@@@@@@@@@@@@@@@@@++++@@@@@@@@@@@@@@@@@@@@@@++++@@@@@@@@@@@@@@@@@@@@@@++++@@@@@@@@@@@@@@@@@@@@@@++++@@@@@@@@@@@@@@@@@@@@@@++++@@@@@@@@@@@@@@@@@@@@@@++++.",
".++++++++++++++++++++@@@@@@@@@@@@@@@@@@@@@@++++@@@@@@@@@@@@@@@@@@@@@@++++@@@@@@@@@@@@@@@@@@@@@@++++@@@@@@@@@@@@@@@@@@@@@@++++@@@@@@@@@@@@@@@@@@@@@@++++@@@@@@@@@@@@@@@@@@@@@@++++@@@@@@@@@@@@@@@@@@@@@@++++@@@@@@@@@@@@@@@@@@@@@@++++@@@@@@@@@@@@@@@@@@@@@@++++.",
".+++++++++++++++++++++@@@@@@@@@@@@@@@@@@@@++++++@@@@@@@@@@@@@@@@@@@@++++++@@@@@@@@@@@@@@@@@@@@++++++@@@@@@@@@@@@@@@@@@@@++++++@@@@@@@@@@@@@@@@@@@@++++++@@@@@@@@@@@@@@@@@@@@++++++@@@@@@@@@@@@@@@@@@@@++++++@@@@@@@@@@@@@@@@@@@@++++++@@@@@@@@@@@@@@@@@@@@+++++.",
".++++++++++++++++++++++++++++++++++++++++++++++++++++++++++++++++++++++++++++++++++++++++++++++++++++++++++++++++++++++++++++++++++++++++++++++++++++++++++++++++++++++++++++++++++++++++++++++++++++++++++++++++++++++++++++++++++++++++++++++++++++++++++++++.",
".++++++++++++++++++++++++++++++++++++++++++++++++++++++++++++++++++++++++++++++++++++++++++++++++++++++++++++++++++++++++++++++++++++++++++++++++++++++++++++++++++++++++++++++++++++++++++++++++++++++++++++++++++++++++++++++++++++++++++++++++++++++++++++++.",
".++++++++++++++++++++++++++++++++++++++++++++++++++++++++++++++++++++++++++++++++++++++++++++++++++++++++++++++++++++++++++++++++++++++++++++++++++++++++++++++++++++++++++++++++++++++++++++++++++++++++++++++++++++++++++++++++++++++++++++++++++++++++++++++.",
".++++++++++++++++++++++++++++++++++++++++++++++++++++++++++++++++++++++++++++++++++++++++++++++++++++++++++++++++++++++++++++++++++++++++++++++++++++++++++++++++++++++++++++++++++++++++++++++++++++++++++++++++++++++++++++++++++++++++++++++++++++++++++++++.",
".++++++++++++++++++++++++++++++++++++++++++++++++++++++++++++++++++++++++++++++++++++++++++++++++++++++++++++++++++++++++++++++++++++++++++++++++++++++++++++++++++++++++++++++++++++++++++++++++++++++++++++++++++++++++++++++++++++++++++++++++++++++++++++++.",
".++##########################################################################################################################################################################################################################################################++.",
".++##########################################################################################################################################################################################################################################################++.",
".++##########################################################################################################################################################################################################################################################++.",
".++##########################################################################################################################################################################################################################################################++.",
".++##########################################################################################################################################################################################################################################################++.",
".++##########################################################################################################################################################################################################################################################++.",
".++##########################################################################################################################################################################################################################################################++.",
".++##########################################################################################################################################################################################################################################################++.",
".++##########################################################################################################################################################################################################################################################++.",
".++##########################################################################################################################################################################################################################################################++.",
".++##########################################################################################################################################################################################################################################################++.",
".++##########################################################################################################################################################################################################################################################++.",
".++##########################################################################################################################################################################################################################################################++.",
".++##########################################################################################################################################################################################################################################################++.",
".++##########################################################################################################################################################################################################################################################++.",
".++##########################################################################################################################################################################################################################################################++.",
".++++++++++++++++++++++++++++++++++++++++++++++++++++++++++++++++++++++++++++++++++++++++++++++++++++++++++++++++++++++++++++++++++++++++++++++++++++++++++++++++++++++++++++++++++++++++++++++++++++++++++++++++++++++++++++++++++++++++++++++++++++++++++++++.",
".++++++++++++++++++++++++++++++++++++++++++++++++++++++++++++++++++++++++++++++++++++++++++++++++++++++++++++++++++++++++++++++++++++++++++++++++++++++++++++++++++++++++++++++++++++++++++++++++++++++++++++++++++++++++++++++++++++++++++++++++++++++++++++++.",
" .............................................................................................................................................................................................................................................................. "};
